<svg xmlns="http://www.w3.org/2000/svg" width="258" height="258" viewBox="0 0 258 258" fill="none">
<path d="M228.897 193.814C217.445 193.814 206.685 189.138 199.375 180.984C195.655 176.834 195.966 170.421 200.069 166.658C201.041 165.765 202.18 165.073 203.421 164.624C204.662 164.175 205.981 163.977 207.299 164.043C208.617 164.108 209.909 164.435 211.1 165.005C212.291 165.574 213.356 166.375 214.235 167.36C217.698 171.224 223.179 173.53 228.897 173.53C234.373 173.53 237.506 170.23 237.9 167.999C238.358 165.403 234.601 163.017 230.932 161.649C215.322 155.827 193.07 147.121 202.228 125.209C206.535 114.904 217.054 109.46 227.786 109.46C238.586 109.46 247.869 114.572 252.33 118.406C260.11 125.094 251.339 141.153 240.091 133.998C234.946 130.726 222.633 126.174 220.703 133.106C219.271 138.251 235.464 141.719 237.872 142.617C255.085 149.036 259.373 161.778 257.646 171.562C255.37 184.456 243.28 193.814 228.897 193.814Z" fill="#F2BA4D"/>
<path d="M242.468 118.407C247.495 122.728 245.611 130.96 240.614 134.316C251.609 140.656 259.99 124.991 252.331 118.407C247.87 114.572 238.588 109.46 227.787 109.46C226.175 109.46 224.568 109.585 222.986 109.829C231.575 111.067 238.722 115.187 242.468 118.407ZM237.873 142.617C235.464 141.72 219.271 138.252 220.704 133.106C221.033 131.924 221.669 131.083 222.515 130.506C217.43 128.933 212.06 128.724 210.84 133.106C209.408 138.252 225.601 141.72 228.009 142.617C245.222 149.036 249.51 161.779 247.783 171.563C245.758 183.037 235.957 191.705 223.689 193.476C225.403 193.691 227.14 193.815 228.897 193.815C243.279 193.815 255.37 184.457 257.646 171.563C259.373 161.779 255.085 149.036 237.873 142.617Z" fill="#D7892E"/>
<path d="M180.558 77.7705H162.906C157.442 77.7705 152.877 82.3878 152.877 87.9126V152.002C152.877 157.603 157.367 162.144 162.906 162.144C168.445 162.144 172.934 157.603 172.934 152.002V134.227H180.558C196.146 134.227 208.828 121.564 208.828 105.999C208.828 90.4332 196.146 77.7705 180.558 77.7705ZM180.558 113.942H172.969V98.0542H180.558C185.009 98.0542 188.77 101.692 188.77 105.998C188.77 110.305 185.01 113.942 180.558 113.942Z" fill="#F2BA4D"/>
<path d="M172.934 134.227H180.557C196.146 134.227 208.827 121.563 208.827 105.999C208.827 90.4337 196.146 77.7705 180.557 77.7705H170.694C186.283 77.7705 198.964 90.4337 198.964 105.999C198.964 121.564 186.283 134.227 170.694 134.227H172.934Z" fill="#D7892E"/>
<path d="M41.727 63.8115C18.7186 63.8115 0 82.7362 0 105.999C0 129.26 18.7186 148.185 41.727 148.185C64.7358 148.185 83.4544 129.26 83.4544 105.999C83.4544 82.7362 64.7358 63.8115 41.727 63.8115ZM41.727 127.901C29.7783 127.901 20.058 118.075 20.058 105.999C20.058 93.9214 29.7788 84.0958 41.727 84.0958C53.6751 84.0958 63.3969 93.9214 63.3969 105.999C63.3964 118.075 53.6751 127.901 41.727 127.901Z" fill="#F2BA4D"/>
<path d="M41.7267 63.8115C40.0572 63.8115 38.414 63.9224 36.7949 64.1164C57.4863 66.5921 73.5907 84.4243 73.5907 105.999C73.5907 127.572 57.4863 145.405 36.7949 147.88C38.4135 148.074 40.0572 148.185 41.7267 148.185C64.7355 148.185 83.4541 129.26 83.4541 105.999C83.4541 82.7362 64.7355 63.8115 41.7267 63.8115Z" fill="#D7892E"/>
<path d="M111.501 109.814C88.492 109.814 69.7734 128.739 69.7734 152.001C69.7734 175.263 88.492 194.188 111.501 194.188C134.509 194.188 153.228 175.263 153.228 152.001C153.227 128.74 134.509 109.814 111.501 109.814ZM111.501 173.904C99.5523 173.904 89.8309 164.078 89.8309 152.001C89.8309 139.924 99.5523 130.099 111.501 130.099C123.45 130.099 133.17 139.924 133.17 152.001C133.17 164.079 123.449 173.904 111.501 173.904Z" fill="#F2BA4D"/>
<path d="M111.501 109.815C109.832 109.815 108.188 109.926 106.569 110.12C127.26 112.596 143.365 130.428 143.365 152.002C143.365 173.576 127.26 191.408 106.569 193.884C108.188 194.078 109.832 194.189 111.501 194.189C134.509 194.189 153.228 175.264 153.228 152.002C153.228 128.74 134.509 109.815 111.501 109.815Z" fill="#D7892E"/>
</svg>