<svg xmlns="http://www.w3.org/2000/svg" width="258" height="258" viewBox="0 0 258 258" fill="none">
<path d="M116.786 225.75C83.7294 213.971 56.0186 182.495 56.0186 145.399C56.0186 98.258 87.4623 56.0186 147.085 56.0186C184.172 56.0186 214.003 83.7375 225.75 116.786C223.298 98.9532 215.917 82.1593 204.438 68.2944C192.959 54.4295 177.837 44.044 160.776 38.3071C143.714 32.5702 125.39 31.7096 107.866 35.8223C90.3419 39.9349 74.3136 48.8575 61.5855 61.5855C48.8575 74.3136 39.9349 90.3419 35.8223 107.866C31.7096 125.39 32.5702 143.714 38.3071 160.776C44.044 177.837 54.4295 192.959 68.2944 204.438C82.1593 215.917 98.9532 223.298 116.786 225.75Z" fill="#D7892E"/>
<path d="M24.1875 128.807C24.2195 101.019 35.2725 74.3777 54.9217 54.7285C74.5709 35.0793 101.212 24.0263 129 23.9943C143.542 23.8511 157.951 26.7628 171.296 32.5408C184.642 38.3189 196.625 46.8347 206.471 57.537C216.316 68.2393 223.805 80.8897 228.453 94.6694C233.1 108.449 234.803 123.051 233.45 137.53C233.363 138.586 233.069 139.614 232.585 140.556C232.101 141.498 231.436 142.336 230.628 143.021C229.82 143.706 228.885 144.225 227.877 144.549C226.868 144.872 225.806 144.994 224.75 144.908C223.695 144.821 222.666 144.527 221.724 144.043C220.782 143.559 219.945 142.894 219.26 142.086C218.575 141.278 218.056 140.343 217.732 139.335C217.408 138.326 217.286 137.264 217.373 136.208C218.158 124.033 216.466 111.824 212.402 100.32C208.337 88.8164 201.984 78.2554 193.724 69.2751C185.465 60.2947 175.472 53.0813 164.347 48.0702C153.223 43.0592 141.199 40.3544 129 40.1193C105.486 40.1449 82.9433 49.497 66.3167 66.1236C49.6902 82.7501 40.3381 105.293 40.3125 128.807C40.5477 141.005 43.2522 153.028 48.2627 164.152C53.2733 175.276 60.486 185.269 69.4655 193.528C78.445 201.787 89.0049 208.141 100.508 212.206C112.011 216.271 124.218 217.963 136.393 217.18C138.527 217.016 140.64 217.7 142.274 219.082C143.908 220.464 144.932 222.434 145.125 224.565C145.241 226.683 144.541 228.766 143.169 230.384C141.796 232.002 139.857 233.033 137.748 233.265C95.9437 239.747 24.1875 204.054 24.1875 128.807Z" fill="#F2BA4D"/>
<path d="M129 233.619C101.418 233.619 80.625 188.558 80.625 128.807C80.625 69.0555 101.418 23.9941 129 23.9941C158.493 23.9941 175.593 72.5223 177.23 120.462C177.267 121.52 177.094 122.575 176.723 123.567C176.352 124.559 175.789 125.468 175.067 126.242C174.344 127.016 173.476 127.64 172.512 128.079C171.549 128.518 170.508 128.762 169.45 128.799C168.387 128.855 167.324 128.697 166.324 128.333C165.324 127.969 164.408 127.407 163.63 126.68C162.853 125.954 162.23 125.078 161.798 124.105C161.367 123.132 161.137 122.082 161.121 121.018C159.468 73.3689 142.876 40.1191 129 40.1191C113.778 40.1191 96.75 78.0129 96.75 128.807C96.75 179.6 113.778 217.494 129 217.494C131.138 217.494 133.189 218.344 134.701 219.856C136.213 221.368 137.062 223.418 137.062 225.557C137.062 227.695 136.213 229.746 134.701 231.258C133.189 232.77 131.138 233.619 129 233.619Z" fill="#F2BA4D"/>
<path d="M217.688 104.619H40.3125C38.1742 104.619 36.1235 103.77 34.6115 102.258C33.0994 100.746 32.25 98.6949 32.25 96.5566C32.25 94.4183 33.0994 92.3676 34.6115 90.8556C36.1235 89.3436 38.1742 88.4941 40.3125 88.4941H217.688C219.826 88.4941 221.877 89.3436 223.389 90.8556C224.901 92.3676 225.75 94.4183 225.75 96.5566C225.75 98.6949 224.901 100.746 223.389 102.258C221.877 103.77 219.826 104.619 217.688 104.619ZM129 169.119H40.3125C38.1742 169.119 36.1235 168.27 34.6115 166.758C33.0994 165.246 32.25 163.195 32.25 161.057C32.25 158.918 33.0994 156.868 34.6115 155.356C36.1235 153.844 38.1742 152.994 40.3125 152.994H129C131.138 152.994 133.189 153.844 134.701 155.356C136.213 156.868 137.062 158.918 137.062 161.057C137.062 163.195 136.213 165.246 134.701 166.758C133.189 168.27 131.138 169.119 129 169.119ZM185.438 233.619C175.87 233.619 166.517 230.782 158.562 225.466C150.607 220.151 144.406 212.596 140.745 203.756C137.083 194.917 136.125 185.19 137.992 175.807C139.859 166.423 144.466 157.803 151.231 151.038C157.997 144.272 166.616 139.665 176 137.799C185.384 135.932 195.11 136.89 203.95 140.551C212.789 144.213 220.344 150.413 225.66 158.368C230.975 166.324 233.812 175.676 233.812 185.244C233.798 198.069 228.696 210.365 219.627 219.434C210.558 228.503 198.263 233.604 185.438 233.619ZM185.438 152.994C179.059 152.994 172.824 154.886 167.52 158.429C162.217 161.973 158.083 167.01 155.642 172.903C153.201 178.796 152.563 185.28 153.807 191.536C155.052 197.792 158.123 203.538 162.633 208.048C167.144 212.559 172.89 215.63 179.146 216.874C185.402 218.119 191.886 217.48 197.779 215.039C203.672 212.598 208.709 208.465 212.252 203.161C215.796 197.858 217.688 191.623 217.688 185.244C217.688 176.691 214.29 168.488 208.242 162.44C202.194 156.392 193.991 152.994 185.438 152.994Z" fill="#F2BA4D"/>
<path d="M155.549 166.951C154.081 165.43 153.268 163.394 153.286 161.28C153.305 159.166 154.153 157.143 155.648 155.649C157.142 154.154 159.165 153.306 161.279 153.287C163.393 153.269 165.429 154.082 166.95 155.55L215.325 203.925C216.793 205.446 217.606 207.483 217.588 209.597C217.569 211.71 216.721 213.733 215.227 215.228C213.732 216.722 211.71 217.57 209.596 217.589C207.482 217.607 205.445 216.794 203.924 215.326L155.549 166.951Z" fill="#F2BA4D"/>
</svg>