<svg xmlns="http://www.w3.org/2000/svg" width="85" height="93" viewBox="0 0 85 93" fill="none">
<path fill-rule="evenodd" clip-rule="evenodd" d="M55.0172 46.5273L38.4437 63.0992C38.4437 63.0992 44.3375 61.2586 52.8078 64.2039C54.2328 64.6992 56.6172 62.3148 56.1219 60.8898C53.1765 52.4195 55.0172 46.5273 55.0172 46.5273Z" fill="#F2BA4D"/>
<path fill-rule="evenodd" clip-rule="evenodd" d="M10.6624 18.743C20.7249 8.68203 37.0608 8.68203 47.1233 18.743C57.1843 28.8055 57.1843 45.1414 47.1233 55.2039C37.0608 65.2648 20.7249 65.2648 10.6624 55.2039C0.601465 45.1414 0.601465 28.8055 10.6624 18.743Z" fill="#F3F3F3"/>
<path fill-rule="evenodd" clip-rule="evenodd" d="M43.7906 15.9277C44.9782 16.7716 46.093 17.7134 47.1234 18.7434C57.1843 28.8059 57.1843 45.1418 47.1234 55.2043C37.0609 65.2652 20.725 65.2652 10.6625 55.2043C10.0703 54.6105 9.51245 53.9965 8.98901 53.3637C18.7421 56.5324 29.889 54.2449 37.6328 46.5012C45.8921 38.2418 47.9453 26.1105 43.7906 15.9277Z" fill="#CCCCCC"/>
<path fill-rule="evenodd" clip-rule="evenodd" d="M8.45312 16.5352C19.7344 5.25391 38.0516 5.25391 49.3328 16.5352C60.6141 27.8164 60.6141 46.1336 49.3328 57.4148C38.0516 68.6961 19.7344 68.6961 8.45312 57.4148C-2.82812 46.1336 -2.82812 27.8164 8.45312 16.5352ZM11.7672 19.8492C21.2188 10.3977 36.5672 10.3977 46.0188 19.8492C55.4703 29.3008 55.4703 44.6492 46.0188 54.1008C36.5672 63.5523 21.2188 63.5523 11.7672 54.1008C2.31563 44.6492 2.31563 29.3008 11.7672 19.8492Z" fill="#797979"/>
<path fill-rule="evenodd" clip-rule="evenodd" d="M2.99526 49.8284C-2.36724 39.0175 -0.548486 25.5362 8.45308 16.5346C16.9062 8.08152 29.3093 5.96277 39.7453 10.1784C39.8797 11.8961 39.8949 13.6211 39.7906 15.3409C30.7109 10.769 19.3453 12.2721 11.7671 19.8487C3.73433 27.8815 2.52808 40.1737 8.15151 49.4862C6.50464 49.7112 4.82339 49.8284 3.11714 49.8284H2.99526Z" fill="#C1C1C1" fill-opacity="0.933333"/>
<path fill-rule="evenodd" clip-rule="evenodd" d="M51.5421 69.5676C50.2235 68.249 49.4827 66.4606 49.4827 64.5958C49.4827 62.7309 50.2235 60.9425 51.5421 59.6239C52.8607 58.3052 54.6491 57.5645 56.514 57.5645C58.3788 57.5645 60.1672 58.3052 61.4858 59.6239L84.1358 82.2739C84.7452 82.8833 83.0124 85.6067 80.2686 88.3504C77.5249 91.0942 74.8015 92.827 74.1921 92.2176L51.5421 69.5676Z" fill="#797979"/>
<path fill-rule="evenodd" clip-rule="evenodd" d="M51.5421 69.5676C50.2235 68.249 49.4827 66.4606 49.4827 64.5958C49.4827 62.7309 50.2235 60.9425 51.5421 59.6239C52.8607 58.3052 54.6491 57.5645 56.514 57.5645C58.3788 57.5645 60.1672 58.3052 61.4858 59.6239L81.9858 80.1239C82.5952 80.7332 80.8624 83.4567 78.1186 86.2004C75.3749 88.9442 72.6515 90.677 72.0421 90.0676L51.5421 69.5676Z" fill="#CCCCCC"/>
<path fill-rule="evenodd" clip-rule="evenodd" d="M25.5828 32.0552C25.5468 30.5661 26.1062 29.4786 26.9687 28.8411C28.3249 27.8411 30.3515 27.8833 31.4515 29.1224C31.9234 29.6552 32.1968 30.4083 32.2046 31.3614C32.2234 33.6474 31.1515 34.9833 30.1015 36.3661C28.689 38.2302 27.2781 40.1458 27.1031 43.3442C27.0805 43.7582 27.2233 44.1642 27.5 44.4729C27.7768 44.7816 28.1649 44.9677 28.5789 44.9903C28.9928 45.0129 29.3988 44.8701 29.7075 44.5934C30.0162 44.3166 30.2024 43.9285 30.2249 43.5146C30.3562 41.0849 31.5187 39.6692 32.5921 38.2536C34.0296 36.3583 35.3562 34.4677 35.3296 31.3364C35.314 29.4958 34.6999 28.0755 33.7874 27.0474C31.6562 24.6474 27.7421 24.388 25.114 26.3255C23.539 27.488 22.3937 29.413 22.4578 32.1286C22.4675 32.543 22.6415 32.9366 22.9414 33.2227C23.2413 33.5089 23.6426 33.6641 24.057 33.6544C24.4714 33.6447 24.8649 33.4707 25.1511 33.1708C25.4372 32.8709 25.5925 32.4696 25.5828 32.0552Z" fill="#F2BA4D"/>
<path d="M28.5187 50.793C29.5801 50.793 30.4406 49.9325 30.4406 48.8711C30.4406 47.8097 29.5801 46.9492 28.5187 46.9492C27.4573 46.9492 26.5968 47.8097 26.5968 48.8711C26.5968 49.9325 27.4573 50.793 28.5187 50.793Z" fill="#F2BA4D"/>
<path fill-rule="evenodd" clip-rule="evenodd" d="M56.6375 10.2766L61.325 2.46408C61.4305 2.28812 61.5004 2.0931 61.5306 1.89015C61.5608 1.68719 61.5507 1.48027 61.501 1.2812C61.4512 1.08214 61.3627 0.894824 61.2406 0.729956C61.1184 0.565089 60.965 0.425896 60.789 0.320325C60.6131 0.214755 60.4181 0.144874 60.2151 0.114673C60.0121 0.0844724 59.8052 0.0945427 59.6062 0.144309C59.4071 0.194076 59.2198 0.282563 59.0549 0.404721C58.89 0.526878 58.7509 0.680312 58.6453 0.856263L53.9578 8.66876C53.7446 9.02411 53.6813 9.4496 53.7818 9.85163C53.8823 10.2537 54.1384 10.5993 54.4937 10.8125C54.8491 11.0257 55.2746 11.089 55.6766 10.9885C56.0786 10.888 56.4243 10.6319 56.6375 10.2766ZM64.0297 15.425L81.2172 2.92501C81.5524 2.68135 81.7771 2.31448 81.8419 1.90512C81.9066 1.49577 81.8061 1.07745 81.5625 0.7422C81.4418 0.576201 81.2896 0.435592 81.1147 0.3284C80.9397 0.221209 80.7453 0.149534 80.5426 0.117469C80.1332 0.0527101 79.7149 0.15322 79.3797 0.396888L62.1922 12.8969C61.8569 13.1406 61.6322 13.5074 61.5674 13.9168C61.5027 14.3261 61.6032 14.7445 61.8468 15.0797C62.0905 15.415 62.4574 15.6397 62.8667 15.7044C63.2761 15.7692 63.6944 15.6687 64.0297 15.425ZM66.614 25.0516L79.114 21.9266C79.3161 21.8797 79.5068 21.7931 79.6751 21.6717C79.8433 21.5504 79.9857 21.3968 80.094 21.2198C80.2022 21.0428 80.2742 20.8461 80.3056 20.6411C80.337 20.436 80.3273 20.2267 80.277 20.0255C80.2266 19.8242 80.1368 19.635 80.0125 19.4689C79.8883 19.3027 79.7323 19.163 79.5535 19.0578C79.3747 18.9526 79.1768 18.884 78.9712 18.8561C78.7656 18.8283 78.5566 18.8416 78.3562 18.8953L65.8562 22.0203C65.4605 22.1265 65.1222 22.3839 64.9144 22.7371C64.7066 23.0902 64.6459 23.5109 64.7453 23.9084C64.8446 24.3059 65.0962 24.6485 65.4457 24.8624C65.7953 25.0762 66.2149 25.1441 66.614 25.0516Z" fill="#F2BA4D"/>
</svg>